<svg xmlns="http://www.w3.org/2000/svg" viewBox="0 0 736 736" xml:space="preserve">
  <defs>
    <!-- စက်ဝိုင်းအပြင်ဘက်ကို ဖြတ်တောက်ရန် -->
    <clipPath id="roundClip">
      <circle cx="368" cy="368" r="368"/>
    </clipPath>
  </defs>

  <!-- စက်ဝိုင်းထဲကသာ မြင်ရပြီး အပြင်ဘက်က transparent ဖြစ်နေပါမယ် -->
  <g clip-path="url(#roundClip)">
    <!-- နောက်ခံ အဖြူရောင် စက်ဝိုင်း -->
    <circle cx="368" cy="368" r="368" fill="#ffffff"/>
    
    <!-- မူလ Artwork -->
    <path d="M236.62 624.607c15.602-14.529 33.548-25.096 51.311-35.914 6.822-4.155 13.669-8.248 20.113-12.998 2.7-1.99 3.442-4.443 3.76-7.656.926-9.334.2-17.045-11.11-19.902-5.743-1.45-10.426-5.694-13.968-10.594-2.62 1.143-3.245 3.398-4.575 5.027-1.493 1.828-3.187 3.384-5.231 4.581-2.328 1.364-4.738 1.928-6.977.108-2.115-1.718-1.151-3.946-.402-5.978 2.053-5.568 1.464-10.51-3.43-14.368-1.15-.906-2.494-1.928-3.864-2.135-14.004-2.119-24.12-10.6-33.591-20.204-1.48-1.501-2.785-3.424-5.721-2.801-.966 4.175-3.027 7.826-6.516 10.641-2.958 2.388-6.113 2.692-9.282.926-3.052-1.701-1.34-4.304-.777-6.653.968-4.031-1.33-7.055-3.398-10.044-5.01-7.243-11.664-13.223-15.949-21.246-2.804.916-3.424 3.29-4.58 5.194-2.454 4.043-8.021 6.307-12.008 4.908-3.898-1.368-4.42-3.482-1.626-6.591 5.554-6.181 5.14-7.978-2.72-10.387-13.176-4.038-21.344-13.852-28.113-24.906-3.818-6.234-7.14-12.685-11.96-18.318-6.215-7.262-6.807-16.392-7.146-25.449-.092-2.462-.013-4.932-.013-7.485-2.822-.907-4.986.13-7.153.704-7.244 1.916-14.163 1.108-20.853-2.2-1.846-.913-3.295-2.237-4.568-3.8-1.337-1.644-2.168-3.501-1.163-5.531 1.113-2.248 3.316-2.159 5.259-1.593 12.189 3.548 21.839-5.927 27.845-13.468 1.894-2.377 1.368-5.674 1.085-8.723-.956-10.298-1.23-20.595.417-30.878.812-5.07 3.583-9.501 5.342-15.818-7.588 4.28-12.491 9.108-15.718 15.68-3.85 7.84-3.7 16.457-4.821 24.823-.308 2.294.05 5.151-2.9 5.646-2.888.484-4.429-1.894-5.554-4.197-5.307-10.854-4.342-21.99-1.132-33.104 3.942-13.645 10.33-25.91 21.008-35.624.566-.515.87-1.319 1.277-1.957-1.326-1.67-2.551-.606-3.74-.308-13.182 3.314-25.009-.048-35.792-7.647-2.973-2.095-5.288-5.138-5.59-9.097-.145-1.891.195-3.675 2.125-4.697 1.71-.906 3.341-.549 4.64.635 8.013 7.296 17.056 6.36 25.564 2.032 13.804-7.02 27.294-14.777 36.11-28.296.962-1.476 2.387-2.784 2.29-5.202-4.259 2.062-7.479 5.049-10.529 8.245-1.606 1.684-3.08 3.499-4.719 5.149-1.267 1.275-2.696 3.011-4.66 1.383-1.855-1.54-1.373-3.602-.285-5.449 4.477-7.604 10.405-13.79 18.017-18.327 1.37-.816 3.12-1.233 3.821-3.5-7.263.978-14.364 2.023-21.35.053-14.303-4.034-24.56-12.92-30.586-26.472-1.143-2.57-2.404-6.256 1.33-7.83 3.577-1.508 5.643 1.02 7.336 4.154 5.258 9.737 14.574 11.431 24.365 11.316 18.073-.213 32.782-8.808 46.548-19.479.45-.348.625-1.05 1.113-1.914-3.08-1.509-6.16-.838-9.032-1.087-12.366-1.068-21.023-8.359-29.149-16.744-4.634-4.782-7.735-10.356-9.5-16.736-.545-1.965-1.354-4.05.999-5.291 2.097-1.106 3.887.012 5.332 1.535 2.971 3.133 5.658 6.51 9.347 8.943 9.518 6.276 20.251 5.666 30.845 5.502 9.823-.152 18.163-4.848 26.56-9.35 9.773-5.239 18.927-11.726 30.956-14.735-4.65-2.862-8.411-4.91-11.887-7.364-14.98-10.576-22.102-25.228-22.103-43.45 0-3.457.854-6.59 5.132-6.455 4.051.128 4.387 3.326 4.594 6.476.573 8.739 5.684 14.807 12.395 19.478 7.636 5.315 16.52 7.43 25.632 9.028 17.631 3.092 34.293-.794 50.91-5.971 19.714-6.142 39.528-7.122 59.374-.453.245.082.596-.155 1.362-.379-7.846-7.301-16.863-12.143-26.549-15.675-19.925-7.266-38.593-4.367-55.979 7.608-2.037 1.403-4.276 2.131-6.344.058-2.127-2.133-1.035-4.27.233-6.346 1.548-2.536 4.07-4.041 6.527-5.303 23.803-12.22 48.763-15.368 74.521-7.881 9.273 2.695 17.46 8.222 24.476 15.065 3.23 3.15 6.714 3.617 10.983 2.612 25.157-5.92 45.337 2.711 61.784 21.66 3.973 4.578 7.564 9.488 12.074 15.183 1.24-8.294-.112-15.14-2.415-21.607-3.864-10.85-10.314-20.121-19.536-27.211-11.048-8.494-23.388-8.184-36.077-4.925-1.28.33-2.492.929-3.736 1.4-1.644.621-2.928.03-3.976-1.233-1.117-1.346-.937-2.765-.133-4.181 1.562-2.751 4.027-4.823 6.91-5.406 21.298-4.304 48.461-1.85 64.335 20.065 9.46 13.059 11.612 27.62 8.78 43.182-.385 2.119-.914 4.222-.22 6.756 2.608-.892 4.044-2.955 5.433-4.905 13.873-19.487 32.832-24.6 55.392-19.819 12.268 2.6 22.787 8.09 30.93 17.85 2.306 2.764 4.006 5.8 4.692 9.24.48 2.412 1.799 5.623-1.894 6.812-3.053.983-5.106-.883-6.407-3.465-1.31-2.601-3.365-4.537-5.375-6.523-7.105-7.018-15.833-10.556-25.65-10.58-13.647-.034-26.99 1.632-37.798 11.336-3.02 2.713-5.068 5.949-5.294 10.794 5.742-1.286 11.047-2.83 16.502-2.09 23.542 3.196 42.314 13.954 55.078 34.503 5.623 9.052 11.8 17.766 13.954 28.487.285 1.421 1.202 2.354 2.333 3.109 9.053 6.041 23.502 7.624 32.968.868 5.25-3.748 8.158-8.616 8.217-15.142.011-1.304.18-2.69.652-3.89.9-2.293 2.895-3.222 5.229-3.045 2.32.177 3.4 1.75 3.744 3.995 1.018 6.645.129 13.166-3.167 18.855-5.235 9.039-10.827 17.985-21.533 21.796-5.263 1.873-10.58 2.563-16.748 1.17 3.097 5.817 7.844 9.365 11.16 14.04 9.663 13.623 13.564 28.735 12.097 45.289-.114 1.29-.378 2.898-1.205 3.735-3.608 3.655-1.57 5.957 1.458 8.462 3.352 2.774 6.849 5.237 10.726 7.238 6.25 3.224 12.266 3.637 18.451-.28 1.85-1.172 4.309-3.851 6.496-1.001 2.214 2.884 1.215 5.885-1.32 8.5-5.763 5.943-13.176 7.4-20.935 7.986-7.015.531-13.89-.383-21.082-2.788.409 5.66 2.974 10.037 4.104 14.794 2.054 8.649 2.2 17.114-.632 25.575-.21.629-.265 1.45-.698 1.843-5.522 5-1.142 7.498 2.499 10.247 4.29 3.24 8.643 6.104 14.364 6.26 2.643.072 5.536.993 5.931 4.284.363 3.023-2.072 4.431-4.382 5.422-7.374 3.166-14.698 1.296-21.96-.6-2.36-.616-4.624-1.606-7.047-2.466-1.183 3.175-.507 5.954-.239 8.725.733 7.592.21 15.024-3.566 21.835-5.78 10.43-9.687 21.81-17.727 31.106-7.962 9.205-16.733 16.59-28.842 19.244-2.518.553-4.07 1.776-4.992 4.242-1.18 3.155-2.117 6.365-2.182 9.693-.081 4.175-3.164 5.296-6.122 6.19-3.224.975-6.517 1.233-8.904-2.29-1.668-2.461-2.261-5.566-4.782-7.831-3.156 1.658-3.628 5.431-6.073 7.568-10.985 9.593-19.823 21.025-28.123 32.922-.844 1.21-1.924 2.36-3.135 3.185-2.777 1.896-5.918 3.703-9.28 2.442-3.554-1.333-1.71-4.913-2.152-7.53-.158-.936.298-2.02-.988-3.009-6.191 3.868-13.479 6.113-19.615 10.168-6.136 4.056-10.015 10.588-12.807 17.463-1.29 3.173-2.281 6.475-6.303 6.88-3.92.395-6.688-1.599-8.528-4.948-1.709-3.108-3.582-3.199-5.63-.368-1.703 2.353-5.585 3.021-5.55 6.65.067 7.131-.917 14.36 1.37 21.324.584 1.776 2.352 2.753 3.94 3.697 7.72 4.584 15.28 9.474 23.204 13.673 12.445 6.595 23.203 15.567 34.594 23.648 19.822 14.06 36.593 31.382 52.628 49.476 2.02 2.28 3.934 4.544 2.542 8.01-1.141 2.842-2.988 4.135-6.086 4.124-36.936-.133-73.876-.571-110.806-.158-21.137.236-42.252-.464-63.387-.289-40.404.336-80.815-.085-121.223-.194-6.331-.017-12.664-.123-18.993-.038-3.286.044-6.015-.848-7.428-3.947-1.39-3.048.286-5.543 2.19-7.687 10.501-11.828 21.186-23.475 33.615-33.373 2.077-1.653 3.881-3.647 6.066-5.732m257.113-197.634c2.68-.344 5.274-1.064 7.47-2.64 14.611-10.495 24.703-24.184 28.166-42.016.97-4.994 2.597-7.297 7.71-6.35 2.246.415 3.936-.58 5.185-2.279 4.946-6.73.92-17.817-7.28-19.268-4.002-.708-5.518-2.567-6.304-6.342-3.53-16.96-12.969-30.335-25.842-41.537-4.488-3.905-10.24-6.869-12.734-12.39-3.25-7.195-7.332-13.797-11.672-20.298-.834-1.248-1.4-3.17-3.975-2.649-.83 5.142-.982 10.462-2.887 15.485-1.303 3.439-3.142 4.861-6.792 3.764-4.53-1.362-9.21-1.49-13.847-.868-3.38.453-4.842-.714-5.372-4.078-3.647-23.125-13.285-43.803-26.19-63.09-1.972-2.947-3.126-6.563-6.288-8.742-1.78 1.102-1.532 2.657-1.741 4.105-1.138 7.882-1.59 15.869-4.077 23.536-8.389 25.863-21.582 47.883-47.497 59.785-2.235 1.026-2.968 2.634-3.593 4.91-1.008 3.674-.088 7.284-.413 10.908-.73 8.137.888 15.534 7.05 21.46 1.117 1.075 2.895 2.244 1.68 4.188-1.022 1.635-2.8 2.637-4.696 2.305-2.75-.481-5.53-.587-8.234-1.742-17.324-7.395-28.411-20.966-36.725-37.132-3.342-6.499-5.528-13.492-6.159-20.94-.97-11.466-1.028-22.941-1.051-34.429-.004-1.683.754-3.751-2.17-5.182-8.303 9.67-14.994 20.443-21.244 32.66 5.918.618 10.82 1.218 15.738 1.618 4.17.34 6.514 2.222 6.326 6.62-.188 4.409-2.438 6.615-6.902 6.833-5.372.263-10.6-.683-15.885-1.353-10.74-1.361-20.745-6.615-32.202-4.63-9.494 1.645-10.437-.01-9.276-9.937.096-.824.427-1.63.462-2.451.179-4.221.766-8.466-.164-12.672-2.198.067-2.818 1.531-3.572 2.774-3.02 4.982-6.04 9.958-8.28 15.372-1.33 3.214-3.076 6.114-5.44 8.837-9.298 10.707-21.491 18.396-30.25 29.675-7.23 9.312-12.964 19.366-16.135 30.67-.914 3.26-1.72 4.666-5.239 5.094-7.768.945-9.665 4.027-9.275 13.445.213 5.152 2.995 7.373 10.092 7.643 2.675.101 4.683.772 5.047 3.647 2.099 16.557 12.026 29.343 20.699 42.678 2.702 4.155 6.316 7.75 11.688 8.675 3.996.688 4.56 2.378 1.97 5.58-1.56 1.928-3.514 3.006-6.037 2.99-2.929-.019-5.858-.004-8.783-.004-.994 1.607-.737 3.309-.285 4.878 1.843 6.4 4.093 12.68 7.142 18.596 8.752 16.982 22.656 29.115 38.633 38.713 25.192 15.135 52.529 24.506 81.652 29.082a194.4 194.4 0 0 0 55.221.749c23.114-2.984 45.594-9.12 66.859-19.18 8.17-3.866 15.515-9.051 23.402-13.333 24.024-13.042 36.782-34.228 43.565-59.795.48-1.805.33-3.573-.6-5.72-4.973 1.184-10.077 1.41-15.178 1.603-5.92.225-7.842-2.264-6.219-7.81 0 0-.039.025.748-.021M333.668 628.809c35.733 6.33 67.703-.74 94.669-25.4-.488-2.216-1.323-2.723-2.219-3.222-7.87-4.385-14.912-10.061-22.586-14.702-6.761-4.089-8.716-9.9-8.941-17.14-.157-5.049-.867-10.08-1.333-15.155-21.884 14.861-44.595 19.386-69.703 8.813-1.521 2.693-1.084 6.063-1.372 9.304-.485 5.46-1.877 10.07-7.516 12.93-8.458 4.29-16.212 9.826-23.882 15.428-5.57 4.07-5.66 4.16-.355 8.748 12.283 10.623 27.173 15.827 43.238 20.396M525.037 441.4c-1.093 7.605-5.446 14.161-7.278 21.58 19.364 3.124 41.257-8 49.386-28.475 7.346-18.503-1.062-42.262-11.83-45.466-3.47 16.052-12.227 28.426-26.3 36.97-1.391.845-1.908 2.23-1.828 3.856.185 3.727-1.037 7.2-2.15 11.535M187.2 464.003c2.042-.195 4.178 1.49 6.653-.66-3.985-8.748-6.37-18.142-8.1-27.716-.268-1.479-1.47-2.038-2.694-2.678-15.832-8.274-26.766-20.315-29.652-38.579-.153-.966-.08-2.372-1.58-3.035-8.45 10.285-11.51 22.262-9.118 34.989 3.787 20.157 23.087 36.247 44.49 37.679m407.508-177.4c1.707-15.254-4.715-27.38-14.727-38.14 6.53 13.061 8.303 27.714 12.794 41.69 2.037-1.102 1.809-2.012 1.933-3.55M275.184 167.629c7.042.446 10.646-5.1 15.253-8.841 1.264-1.026 2.41-2.529 1.317-4.326-1.066-1.756-2.99-1.467-4.491-1.025-5.597 1.65-9.748 5.395-13.212 9.916-.97 1.266-.956 2.803 1.133 4.276m99.379 92.607c-4.914 8.101-9.84 16.196-13.126 26.394 10.129-8.016 13.699-18.192 16.4-29.186-2.129-.025-2.357 1.287-3.274 2.792m-185.348-5.545c1.14-2.57 2.403-5.095 3.367-7.73.464-1.268 1.363-2.903-.463-3.99-1.605-.957-3.139-.667-4.628.392-3.222 2.29-4.433 5.693-5.088 9.335-.337 1.875.013 3.714 2.038 4.611 2.155.955 3.436-.214 4.774-2.618m28.514-65.36c2.326-1.503 3.425-3.99 4.79-6.214.888-1.446 1.279-3.21-.788-4.225-1.956-.961-3.902-.68-5.602.603-2.573 1.94-3.795 4.721-3.354 7.8.294 2.053 2.25 2.655 4.954 2.036m375.915 161.087c-.048-3.868.22-7.823-2.815-11.256-2.644 6.96-1.87 16.15 1.461 19.356 1.512-2.223 1.364-4.74 1.354-8.1M201.9 259.35c4.378-5.015 4.832-7.913 1.65-11.54-3.028 1.92-4.164 5.077-5.054 8.231-.551 1.956.029 3.74 3.404 3.31"/>
    <path d="M493.002 426.979c-4.652 2.496-9.32 5.008-13.976 7.515 1.86 1.331 1.986 3.122.768 5.086-2.632 4.245-5.198 8.537-7.992 12.675-1.222 1.811-3.022 3.504-5.452 2.05-2.281-1.363-1.321-3.534-.616-5.379 1.654-4.325 4.771-7.843 7.256-12.169-4.15.693-7.13 1.44-8.562 5.903-1.285 4.007-4.129 7.561-6.542 11.142-1.265 1.877-2.834 3.937-5.725 2.179-2.929-1.783-2.267-3.927-.985-6.402 1.503-2.9 4.113-5.26 4.498-8.797-1.673-.882-3.303-.474-5.267-.386-.008 5.327-3.758 8.65-6.577 12.467-1.45 1.965-3.521 2.693-5.708 1.344-2.372-1.462-1.075-3.5-.399-5.33 1.18-3.194 3.884-5.317 6.17-8.171-2.87-1.946-6.002-1.643-8.793-2.107-27.749-4.613-46.313-20.346-56.291-46.37-1.893-4.935-2.948-10.227-4.002-15.432-.58-2.87-1.895-4.128-4.69-4.91-11.345-3.172-22.411-1.429-33.49 1.297-2.1.517-2.97 1.71-3.294 3.784-3.91 24.905-16.972 43.652-39.395 54.896-12.015 6.025-25.134 9.792-39.082 7.674-1.292-.196-2.64-.026-4.373-.026 1.359 4.26-1.269 7.124-3.406 10.149-1.34 1.896-2.862 3.667-4.175 5.58-1.236 1.802-2.656 3.326-4.886 1.942-2.163-1.342-1.533-3.369-.653-5.322 1.585-3.516 3.769-6.65 6.022-9.747.568-.78 1.09-1.596 1.605-2.351-1.445-1.96-3.583-1.202-5.178-2-1.004 7.21-5.848 12.324-9.62 17.986-1.045 1.568-2.73 1.83-4.392.658-1.667-1.175-1.67-2.786-.992-4.457 2.39-5.9 6.152-10.846 10.956-15.47-12.147-3.578-22.523-9.916-31.5-18.647-10.704-10.412-17.323-23.04-20.693-37.466-1.765-7.552-1.71-7.565-9.4-8.112-4.761-.339-6.696-2.593-6.696-7.456 0-4.793 2.517-6.759 6.973-6.097 5.195.772 7.229-1.444 8.357-6.405 6.383-28.054 23.826-46.658 50.316-56.85 11.872-4.567 24.546-4.826 36.944-2.987 13.11 1.945 25.492 6.451 35.76 15.364 15.132 13.135 24.58 29.47 27.512 49.417.096.652.254 1.295.415 1.934.037.145.206.256.44.53 2.398.772 4.768-.32 7.143-.815 8.32-1.737 16.564-.757 24.784.575 8.168 1.323 7.865 1.35 9.595-6.612 4.82-22.172 16.105-40.27 36.102-51.507 13.975-7.853 29.211-10.626 45.697-9.193 15.432 1.342 28.868 6 40.563 15.768 13.908 11.618 24.424 25.627 26.89 44.092.736 5.499 3.443 6.358 7.716 6.875 6.232.753 7.785 2.605 7.638 8.196-.085 3.2-1.536 4.837-4.766 5.231-8.193 1-8.274 1.04-10.125 8.749-4.659 19.408-15.984 34.088-32.243 45.72-.24.235-.2.21-.184.195M203.786 336.59c-.466-.733-.912-1.56-1.732-.304-4.118 6.315-7.734 12.92-8.698 20.492-2.104 16.525 2.63 31.591 12.356 44.564 14.634 19.52 34.344 29.025 59.25 27.348 16.92-1.14 30.952-8.296 42.213-20.143 13.395-14.093 17.902-31.37 14.57-50.743-4.28-24.87-17.989-42.007-41.182-51.68-4.245-1.77-5.176-.989-5.275 3.691-.184 8.709 4.175 15.123 10.066 20.905 1.312 1.288 3.234 2.773 1.69 5.139-1.442 2.21-3.484 2.922-6.059 2.368-4.103-.884-8.043-2.142-11.425-4.736-9.571-7.343-18.626-15.14-22.896-26.97-.863-2.391-2.314-2.86-4.658-2.189-6.117 1.752-12.069 3.975-17.433 7.355-7.044 4.439-12.463 9.893-10.27 19.473.807 3.529.778 7.26.99 10.908.104 1.797.267 3.794-2.108 4.51-2.241.675-4.125-.224-5.246-1.95-1.526-2.352-2.588-5.005-4.153-8.038m296.711 33.398c13.004-7.44 15.7-22.725 5.762-34.145-4.689 3.766-9.969 6.515-15.875 7.905-4.594 1.082-8.903.182-12.89-2.246-1.297-.79-2.52-1.831-2.16-3.6.307-1.506 1.621-1.907 2.924-2.372 3.593-1.285 7.327-2.24 10.49-4.553 6.283-4.594 7.073-12.106 1.243-15.937-6.662-4.379-13.545-8.42-21.306-10.802-3.52-1.08-5.874-.375-8.456 2.098-4.425 4.239-8.584 8.969-14.29 11.542-6.882 3.104-13.394 7.917-21.654 5.97-2.016-.475-4.818-.577-5.085-3.257-.238-2.395 2.341-3.048 4.045-3.867 5.958-2.867 10.794-6.977 14.97-12.405-18.977.862-43.181 21.253-49.192 39.405-9.778 29.53 1.058 56.145 20.915 71.772 22.041 17.347 54.205 19.244 80.273-.25 12.129-9.07 21.328-20.365 23.41-37.004-2.59.845-4.123 1.448-5.708 1.834-1.613.394-3.275.785-4.92.804-3.306.038-6.434-.58-7.501-4.38-1.051-3.744 1.712-4.951 5.005-6.512M335.28 476.395c-3.364.254-5.696-.765-7.345-3.172-2.413-3.522-.456-7.88 3.793-7.953a3094 3094 0 0 1 46.354-.438c4.744-.01 8.085 2.705 7.68 6.017-.534 4.377-3.727 5.46-7.602 5.465-14.139.014-28.277.055-42.88.081"/>
    <path d="M398.015 291.232c-2.627-2.289-3.767-4.635-2.373-7.748 1.37-3.06 3.88-3.808 6.927-3.813 11.44-.016 22.87-1.689 34.324-.034 2.638.381 5.34.902 5.716 3.788.377 2.891-2.167 4.455-4.567 5.203-7.489 2.334-15.236 3.427-23.036 4.018-5.591.423-11.267 1.435-16.991-1.414M219.991 452c-1.713 2.425-3.652 3.83-6.076 2.081-2.457-1.773-1.518-4.238-.172-6.227a215 215 0 0 1 8.484-11.692c1.109-1.422 2.766-2.766 4.729-1.32 1.846 1.362 1.427 3.187.408 4.907-2.37 3.996-4.761 7.978-7.373 12.25m270.493-6.555c-1.74 2.24-3.102 4.332-5.175 5.797-1.412.999-2.79.92-4.106-.12-1.191-.942-1.394-2.209-.892-3.576 1.592-4.34 4.494-7.704 8.135-10.42 1.263-.943 2.862-1.024 4.109.197 1.189 1.163 1.364 2.68.61 4.121-.684 1.312-1.621 2.491-2.681 4.001m-233.057 7.912c-.84 1.072-1.363 1.95-2.081 2.62-1.329 1.238-2.758 2.735-4.766 1.435-2.293-1.485-1.438-3.505-.392-5.248 1.787-2.98 3.676-5.91 5.693-8.74 1.213-1.7 2.95-2.989 5.11-1.689 2.173 1.308 1.081 3.276.33 4.853-1.064 2.236-2.43 4.328-3.894 6.77m49.88-92.053c-8.275 1.533-9.225 7.782-10.644 14.155-4.49 20.169-25.33 27.17-42.647 24.257-9.009-1.516-17.04-5.284-23.464-12.169-4.633-4.965-6.899-10.912-7.786-17.377-.533-3.876-2.271-5.654-6.032-5.793-1.16-.042-2.353-.091-3.461-.393-2.834-.77-4.591-2.465-4.664-5.643-.07-3.077 1.732-4.65 4.326-5.293 2.56-.636 5.23-1.096 7.86-1.138 23.76-.38 47.506-1.506 71.277-1.178 3.827.053 7.64.056 11.417.857 5.284 1.122 6.793 4.517 3.818 9.715m176.607-9.63c4.455.422 8.437.726 12.386 1.275 3.675.511 6.424 2.288 6.037 6.487-.364 3.948-2.996 6.096-6.793 5.718-4.822-.479-5.695 1.453-6.489 5.983-1.978 11.289-8.502 20.3-19.099 24.574-13.552 5.466-27.532 6.882-41.252-.852-10.714-6.04-15.983-15.206-16.896-27.06-.266-3.453-1.42-4.707-4.747-4.708-4.064 0-7.264-1.348-7.356-6.2-.096-5.12 3.689-6.116 7.414-6.152 15.138-.147 30.28-.068 45.42.107 10.298.119 20.593.535 31.375.828"/>
  </g>
</svg>