<svg viewBox="0 0 24 24" xmlns="http://www.w3.org/2000/svg" fill="#4999ee">
  <!-- ပထမ အလယ်ကျအောင် translate လုပ်ပြီးနောက်မှ rotate -->
  <g transform="translate(0.1,0) rotate(45, 12, 9)">
    <path d="M19.770353,17.58451 C18.225353,18.4867 16.591353,17.27747 15.381353,15.95558 
             C16.484353,14.46124 17.537353,12.64689 17.594353,10.79167 
             C17.642353,9.02816 16.690353,7.67637 15.284353,7.16297 
             C14.541353,6.88783 13.713353,6.86191 12.952353,7.08621 
             C11.551353,7.49893 10.547353,8.71414 10.427353,10.28525 
             C10.262353,12.27006 11.430353,14.35756 12.626353,15.95459 
             C11.920353,16.73715 10.963353,17.59348 9.927353,17.82476 
             C8.126353,18.24944 6.591353,16.54375 7.196353,14.68355 
             C7.507353,13.7365 12.316353,3.06773 13.133353,2.42174 
             C13.626353,2.02099 14.408353,2.01202 14.920353,2.46062 
             C15.671353,3.1086 20.592353,13.87506 20.853353,14.83109 
             C21.159353,15.96157 20.667353,17.07011 19.770353,17.58451 
             M14.002353,14.23096 C13.584353,13.62484 13.216353,13.0277 12.919353,12.34383 
             C12.484353,11.326 12.198353,9.98717 13.117353,9.37608 
             C13.702353,8.9843 14.529353,9.03414 15.045353,9.4987 
             C15.696353,10.0749 15.533353,11.14058 15.238353,11.96103 
             C14.923353,12.81836 14.449353,13.59294 14.002353,14.23096 
             M16.416353,0.97126 C15.065353,-0.36857 12.829353,-0.28583 11.564353,0.99518 
             C10.419353,2.12267 5.250353,13.2859 5.050353,14.77626 
             C4.629353,17.63336 6.908353,20.16148 9.641353,19.97407 
             C11.381353,19.87936 12.807353,18.80272 14.003353,17.53566 
             C16.048353,19.71388 18.673353,20.8623 21.041353,19.22839 
             C22.263353,18.392 23.027353,16.93753 23.002353,15.3724 
             C22.979353,13.30085 17.366353,1.88342 16.416353,0.97126">
    </path>
  </g>
</svg>
